 http://leetleech.org/images/30073749755801261409.jpg

Screens:
 
http://leetleech.org/images/83465145335363209463.jpg 
http://leetleech.org/images/09071637124317427236.jpg 
http://leetleech.org/images/23501548121333568779.jpg 
http://leetleech.org/images/63217335867300109614.jpg

Alternative:
 
http://www.postimg.com/image/88000/1-87454.jpg 
http://www.postimg.com/image/88000/3-87455.jpg 
http://www.postimg.com/image/88000/7-87456.jpg 
http://www.postimg.com/image/88000/8-87457.jpg

ScreenCaps:
 
http://www.postimg.com/image/88000/screencaps-87460.jpg

The Amazing Spider-Man (2012) DVDRip XviD-MAX
Format                                   : AVI
Format/Info                              : Audio Video Interleave
Format profile                           : OpenDML
Format settings                          : rec
File size                                : 1.31 GiB
Duration                                 : 2h 10mn
Overall bit rate                         : 1 435 Kbps
Writing application                      : VirtualDubMod 1.5.10.2 (build 2542/release)
Writing library                          : VirtualDubMod build 2542/release
Original source form                     : MAX TORRENTZ
Copyright                                : SIGISMUNT

Video
ID                                       : 0
Format                                   : MPEG-4 Visual
Format profile                           : Advanced Simple@L5
Format settings, BVOP                    : 2
Format settings, QPel                    : No
Format settings, GMC                     : No warppoints
Format settings, Matrix                  : Default (MPEG)
Codec ID                                 : XVID
Codec ID/Hint                            : XviD
Duration                                 : 2h 10mn
Bit rate                                 : 1 109 Kbps
Width                                    : 720 pixels
Height                                   : 304 pixels
Display aspect ratio                     : 2.35:1
Frame rate                               : 25.000 fps
Color space                              : YUV
Chroma subsampling                       : 4:2:0
Bit depth                                : 8 bits
Scan type                                : Progressive
Compression mode                         : Lossy
Bits/(Pixel*Frame)                       : 0.203
Stream size                              : 1.01 GiB (77%)
Writing library                          : XviD 1.2.1 (UTC 2008-12-04)

Audio
ID                                       : 1
Format                                   : AC-3
Format/Info                              : Audio Coding 3
Mode extension                           : CM (complete main)
Format settings, Endianness              : Big
Codec ID                                 : 2000
Duration                                 : 2h 10mn
Bit rate mode                            : Constant
Bit rate                                 : 320 Kbps
Channel(s)                               : 6 channels
Channel positions                        : Front: L C R, Side: L R, LFE
Sampling rate                            : 48.0 KHz
Bit depth                                : 16 bits
Compression mode                         : Lossy
Stream size                              : 299 MiB (22%)
Alignment                                : Aligned on interleaves
Interleave, duration                     : 64 ms (1.60 video frames)
Interleave, preload duration             : 192 ms

Source: DVD (perfect a/v/sync quality,sample included)
This torrent is not seedbox supported,please seed it to the MAX

The Amazing Spider-Man (2012) DVDRip XviD-MAX Torrent Free Download
 
http://thepiratebay.se/user/extremezone/0/7